<?xml version="1.0" standalone="no"?>
<!DOCTYPE svg PUBLIC "-//W3C//DTD SVG 20010904//EN"
 "http://www.w3.org/TR/2001/REC-SVG-20010904/DTD/svg10.dtd">
<svg version="1.0" xmlns="http://www.w3.org/2000/svg"
 width="1024.000000pt" height="1024.000000pt" viewBox="0 0 1024.000000 1024.000000"
 preserveAspectRatio="xMidYMid meet">
<metadata>
Created by potrace 1.14, written by Peter Selinger 2001-2017
</metadata>
<g transform="translate(0.000000,1024.000000) scale(0.100000,-0.100000)"
fill="#000000" stroke="none">
<path d="M4918 10235 c-2 -1 -37 -5 -78 -9 -41 -3 -86 -8 -100 -10 -14 -3 -43
-7 -65 -11 -186 -27 -484 -109 -620 -170 -16 -7 -46 -19 -65 -27 -146 -56
-547 -290 -627 -367 -12 -12 -25 -21 -29 -21 -4 0 -14 -8 -23 -18 -9 -9 -38
-35 -66 -57 -120 -97 -332 -324 -446 -480 -49 -68 -123 -177 -133 -197 -3 -7
-17 -31 -30 -53 -26 -43 -151 -293 -168 -335 -6 -14 -14 -33 -19 -43 -11 -21
-89 -244 -94 -270 -2 -10 -13 -50 -24 -90 -31 -116 -60 -269 -66 -347 -2 -19
-6 -57 -10 -84 -4 -27 -9 -92 -10 -145 -2 -53 -4 -98 -5 -101 -8 -25 10 -320
25 -420 2 -14 7 -43 10 -65 3 -22 15 -83 26 -135 11 -52 21 -104 24 -115 2
-11 13 -51 25 -90 11 -38 22 -77 25 -85 2 -8 4 -15 5 -15 1 0 3 -7 5 -15 4
-22 44 -129 65 -175 9 -22 21 -51 25 -65 13 -43 149 -301 206 -390 152 -240
360 -482 559 -650 36 -30 68 -59 72 -65 4 -5 8 -7 8 -3 0 4 11 -3 24 -15 44
-42 105 -87 115 -87 6 0 11 -4 11 -10 0 -5 6 -10 14 -10 8 0 16 -4 18 -8 11
-26 363 -220 513 -282 68 -29 187 -70 200 -70 8 0 15 -5 15 -12 0 -6 3 -9 6
-6 3 4 20 2 37 -4 33 -10 127 -36 162 -45 41 -10 202 -43 240 -48 22 -3 53 -8
68 -11 55 -9 305 -26 377 -25 103 1 326 16 380 26 8 2 51 8 95 15 89 13 348
75 377 91 10 5 18 6 18 2 0 -4 5 -2 12 5 7 7 20 12 29 12 59 0 462 190 629
298 282 180 547 420 727 657 13 17 36 47 53 69 16 21 30 42 30 45 0 3 10 18
23 31 12 14 31 41 41 60 11 19 22 37 26 40 25 19 220 405 220 436 0 8 4 14 10
14 5 0 9 3 8 8 -1 4 8 34 21 67 13 33 24 65 25 70 1 6 5 16 9 23 5 6 6 12 2
12 -3 0 1 13 10 30 8 16 15 32 15 35 0 3 0 6 1 8 0 1 2 9 4 17 2 14 19 78 46
183 6 21 12 50 14 65 2 15 9 54 15 87 21 119 35 266 35 352 0 40 2 73 5 73 3
0 5 20 5 45 0 25 -2 45 -5 45 -3 0 -6 39 -6 88 -2 120 -19 287 -40 382 -3 14
-7 36 -9 50 -2 14 -9 45 -15 70 -6 25 -13 58 -16 75 -7 33 -99 320 -113 350
-6 11 -26 58 -46 105 -132 308 -350 627 -599 875 -78 77 -138 132 -264 236
-12 11 -26 19 -31 19 -5 0 -11 4 -13 8 -16 41 -478 313 -588 347 -14 4 -43 16
-65 25 -57 25 -174 68 -210 76 -16 4 -36 11 -42 17 -7 5 -13 7 -13 3 0 -3 -11
-1 -25 4 -14 5 -38 12 -53 15 -38 8 -57 13 -57 15 0 1 -7 3 -15 5 -8 1 -40 7
-70 14 -30 6 -68 13 -85 16 -16 3 -41 7 -54 10 -13 2 -49 7 -80 11 -31 4 -69
9 -86 11 -34 5 -482 13 -487 8z m287 -967 c93 -30 163 -89 205 -173 20 -42 24
-64 24 -135 0 -96 -19 -148 -76 -211 -75 -82 -132 -103 -318 -114 -84 -5 -121
-9 -170 -20 -14 -3 -38 -8 -54 -11 -16 -2 -33 -7 -38 -10 -4 -3 -16 -7 -25 -9
-116 -25 -309 -127 -441 -234 -103 -83 -251 -255 -298 -349 -11 -20 -22 -39
-25 -42 -19 -16 -96 -222 -114 -305 -18 -80 -25 -129 -30 -204 -10 -136 -13
-159 -25 -197 -25 -77 -89 -147 -170 -186 -35 -17 -64 -22 -132 -22 -56 0 -92
4 -100 12 -7 7 -18 12 -25 12 -17 0 -84 46 -111 78 -13 15 -36 50 -50 77 -24
46 -26 60 -26 175 -1 69 3 148 6 175 4 28 10 70 13 95 17 130 137 507 166 518
5 2 9 10 9 18 0 7 11 33 25 56 14 24 28 51 32 61 3 9 9 17 14 17 5 0 9 5 9 11
0 13 69 116 134 199 107 137 304 318 451 415 100 66 345 189 396 199 8 2 28 8
44 15 73 30 280 76 395 87 36 4 66 7 67 8 9 7 213 2 238 -6z"/>
<path d="M4489 3898 c-15 -62 -16 -79 -8 -110 4 -16 4 -28 -1 -28 -5 0 -5 -13
0 -30 5 -16 6 -30 2 -30 -4 0 -7 -16 -7 -35 0 -19 3 -35 7 -35 4 0 3 -13 -2
-30 -5 -16 -6 -30 -2 -30 8 0 7 -68 -1 -76 -3 -3 -2 -17 3 -30 6 -14 6 -26 0
-29 -6 -3 -6 -15 0 -30 6 -15 6 -27 0 -30 -6 -3 -6 -15 0 -30 6 -15 6 -27 0
-30 -5 -3 -6 -15 0 -29 4 -12 4 -29 0 -36 -5 -8 -5 -21 0 -30 5 -9 5 -22 0
-30 -5 -8 -5 -21 0 -30 5 -9 5 -22 0 -30 -5 -8 -5 -21 0 -30 5 -9 5 -22 0 -30
-5 -8 -5 -21 0 -30 5 -9 5 -22 0 -30 -5 -8 -5 -21 0 -30 5 -9 5 -22 0 -30 -5
-8 -5 -21 0 -30 5 -9 5 -22 0 -30 -5 -8 -5 -21 0 -30 5 -9 5 -22 0 -30 -5 -8
-5 -21 0 -30 5 -9 5 -22 0 -30 -5 -8 -5 -21 0 -30 5 -9 5 -22 0 -30 -5 -8 -5
-21 0 -30 5 -9 5 -22 0 -30 -5 -8 -6 -19 -3 -24 8 -13 7 -102 -2 -116 -3 -5
-2 -10 4 -10 6 0 6 -11 1 -30 -5 -16 -5 -30 0 -30 4 0 4 -16 0 -35 -4 -19 -4
-37 1 -40 4 -3 4 -17 -1 -30 -5 -14 -5 -27 0 -30 5 -3 5 -18 0 -35 -5 -17 -5
-30 0 -30 5 0 5 -13 0 -30 -5 -17 -5 -30 0 -30 5 0 5 -13 0 -30 -5 -16 -5 -30
0 -30 4 0 4 -16 0 -35 -4 -19 -4 -37 1 -40 4 -3 4 -17 -1 -30 -6 -15 -6 -27 1
-30 5 -4 7 -11 3 -16 -8 -13 -9 -103 -1 -115 3 -5 2 -16 -3 -24 -5 -8 -5 -21
0 -30 5 -9 5 -22 0 -29 -4 -8 -4 -27 0 -42 5 -16 5 -29 0 -29 -5 0 -5 -13 0
-30 5 -17 5 -30 0 -30 -5 0 -5 -13 0 -30 5 -17 5 -30 0 -30 -5 0 -5 -13 0 -30
5 -17 5 -30 0 -30 -5 0 -5 -13 0 -30 5 -17 5 -30 0 -30 -5 0 -5 -13 0 -30 5
-17 5 -30 0 -30 -5 0 -5 -13 0 -30 5 -17 5 -30 0 -30 -5 0 -5 -13 0 -30 5 -17
5 -30 0 -30 -5 0 -5 -13 0 -30 5 -17 5 -30 0 -30 -5 0 -5 -13 0 -30 5 -17 5
-30 0 -30 -5 0 -5 -13 0 -30 5 -17 5 -30 0 -30 -5 0 -5 -13 0 -30 5 -17 5 -30
0 -30 -5 0 -5 -13 0 -30 5 -17 5 -30 0 -30 -5 0 -5 -13 0 -30 5 -17 5 -30 0
-30 -5 0 -5 -13 0 -30 5 -17 5 -30 0 -30 -5 0 -5 -12 -1 -28 5 -15 5 -37 0
-49 -5 -13 -4 -25 1 -28 6 -3 6 -15 0 -29 -5 -13 -6 -26 -4 -29 3 -3 7 -43 8
-89 2 -45 9 -103 16 -128 6 -25 12 -46 11 -47 0 -2 18 -40 41 -85 85 -168 265
-304 448 -337 40 -7 215 -7 245 1 124 30 218 77 296 147 53 47 140 156 140
176 0 6 6 17 13 25 31 36 75 237 67 308 0 6 -1 19 -1 27 0 8 0 22 0 30 0 8 0
22 0 30 0 8 0 22 0 30 0 8 0 22 0 30 0 8 0 22 0 30 0 8 0 22 0 30 0 8 0 22 0
30 0 8 0 22 0 30 0 8 0 22 0 30 0 8 0 22 0 30 0 8 0 22 0 30 0 8 0 22 0 30 0
8 0 22 0 30 0 8 0 22 0 30 0 8 0 22 0 30 0 8 0 22 0 30 0 34 0 52 -1 97 0 26
2 52 6 58 3 5 2 10 -4 10 -6 0 -6 11 -1 30 5 17 5 30 0 30 -4 0 -4 16 0 35 4
19 4 37 -1 40 -4 3 -4 17 1 30 5 14 5 27 0 30 -5 3 -5 18 0 35 5 17 5 30 0 30
-5 0 -5 13 0 30 5 17 5 30 0 30 -5 0 -5 13 0 30 5 17 5 30 0 30 -4 0 -4 16 0
35 4 19 4 37 -1 40 -4 3 -4 17 1 30 6 15 6 27 -1 30 -5 4 -7 11 -3 16 8 13 9
103 1 115 -3 5 -2 16 3 24 5 8 5 21 0 30 -5 9 -5 22 0 29 4 8 4 27 0 42 -5 16
-5 29 0 29 5 0 5 13 0 30 -5 17 -5 30 0 30 5 0 5 13 0 30 -5 17 -5 30 0 30 5
0 5 13 0 30 -5 17 -5 30 0 30 5 0 5 13 0 30 -5 17 -5 30 0 30 5 0 5 13 0 30
-5 17 -5 30 0 30 5 0 5 13 0 30 -5 17 -5 30 0 30 5 0 5 13 0 30 -5 17 -5 30 0
30 5 0 5 13 0 30 -5 17 -5 30 0 30 5 0 5 13 0 30 -5 17 -5 30 0 30 5 0 5 13 0
30 -5 17 -5 30 0 30 5 0 5 13 0 30 -5 17 -5 30 0 30 5 0 5 13 0 30 -5 17 -5
30 0 30 5 0 5 13 0 30 -5 17 -5 30 0 30 5 0 5 13 0 30 -5 17 -5 30 0 30 5 0 5
12 1 28 -5 15 -5 37 0 49 5 13 4 25 -1 28 -6 3 -6 15 0 30 5 13 6 26 2 29 -8
5 -6 80 2 103 3 7 1 13 -4 13 -5 0 -5 13 0 30 5 17 5 30 0 30 -4 0 -4 16 0 35
4 19 4 37 -1 40 -4 3 -4 17 1 30 5 14 5 27 0 30 -5 3 -5 18 0 35 5 17 5 30 0
30 -5 0 -5 13 0 30 5 17 5 30 0 30 -5 0 -5 13 0 30 5 17 5 30 0 30 -4 0 -4 16
0 35 4 19 4 37 -1 40 -4 3 -4 17 1 30 5 14 5 27 0 30 -5 3 -5 18 0 35 11 37
-2 86 -21 82 -8 -2 -32 -6 -54 -8 -22 -2 -50 -6 -62 -8 -12 -3 -53 -8 -90 -11
-37 -4 -81 -9 -98 -11 -16 -3 -95 -7 -175 -9 -80 -3 -147 -5 -150 -6 -3 -1 -9
-1 -15 1 -5 1 -63 3 -130 6 -141 5 -207 10 -255 18 -19 3 -55 8 -80 11 -81 11
-102 14 -121 20 -10 4 -19 5 -20 3z"/>
</g>
</svg>
